<svg xmlns="http://www.w3.org/2000/svg" width="42" height="42" viewBox="0 0 42 42" fill="none">
<rect width="42" height="42" rx="21" fill="#e1e7ef"/>
<g clip-path="url(#clip0_12645_145134)">
<path d="M19.5542 14.2964C19.9164 13.1816 21.4936 13.1816 21.8558 14.2964L22.5746 16.5086C22.8985 17.5057 23.8277 18.1808 24.8761 18.1808H27.2022C28.3743 18.1808 28.8617 19.6807 27.9134 20.3697L26.0316 21.7369C25.1834 22.3532 24.8285 23.4455 25.1525 24.4426L25.8713 26.6548C26.2335 27.7696 24.9576 28.6966 24.0093 28.0076L22.1274 26.6404C21.2793 26.0242 20.1307 26.0242 19.2826 26.6404L17.4007 28.0076C16.4524 28.6966 15.1765 27.7696 15.5387 26.6548L16.2575 24.4426C16.5815 23.4455 16.2266 22.3532 15.3784 21.7369L13.4966 20.3697C12.5483 19.6807 13.0357 18.1808 14.2078 18.1808H16.5339C17.5823 18.1808 18.5115 17.5057 18.8354 16.5086L19.5542 14.2964Z" stroke="black" stroke-width="1.21"/>
</g>
<defs>
<clipPath id="clip0_12645_145134">
<rect width="18" height="18" fill="black" transform="translate(12 12)"/>
</clipPath>
</defs>
</svg>