<svg xmlns="http://www.w3.org/2000/svg" width="42" height="42" viewBox="0 0 42 42" fill="none">
<rect width="42" height="42" rx="21" fill="url(#paint0_linear_12645_145106)"/>
<path fill-rule="evenodd" clip-rule="evenodd" d="M24.2197 16.7197C24.5126 16.4268 24.9874 16.4268 25.2803 16.7197L29.2803 20.7197C29.5732 21.0126 29.5732 21.4875 29.2803 21.7804L25.2803 25.7804C24.9874 26.0733 24.5126 26.0733 24.2197 25.7804C23.9268 25.4875 23.9268 25.0126 24.2197 24.7197L27.6893 21.25L24.2197 17.7803C23.9268 17.4874 23.9268 17.0126 24.2197 16.7197Z" fill="white"/>
<path fill-rule="evenodd" clip-rule="evenodd" d="M17.2803 16.7197C16.9874 16.4268 16.5126 16.4268 16.2197 16.7197L12.2197 20.7197C11.9268 21.0126 11.9268 21.4875 12.2197 21.7804L16.2197 25.7804C16.5126 26.0733 16.9874 26.0733 17.2803 25.7804C17.5732 25.4875 17.5732 25.0126 17.2803 24.7197L13.8107 21.25L17.2803 17.7803C17.5732 17.4874 17.5732 17.0126 17.2803 16.7197Z" fill="white"/>
<path fill-rule="evenodd" clip-rule="evenodd" d="M21.9164 15.0188C22.3203 15.1106 22.5733 15.5125 22.4815 15.9164L19.9815 26.9164C19.8898 27.3203 19.4879 27.5733 19.084 27.4815C18.68 27.3897 18.427 26.9878 18.5188 26.5839L21.0189 15.584C21.1106 15.18 21.5125 14.927 21.9164 15.0188Z" fill="white"/>
<defs>
<linearGradient id="paint0_linear_12645_145106" x1="3" y1="9.375" x2="37.5" y2="34.125" gradientUnits="userSpaceOnUse">
<stop stop-color="#0755e9"/>
<stop offset="1" stop-color="#0755e9" stop-opacity="0.77"/>
</linearGradient>
</defs>
</svg>