<svg width="42" height="42" viewBox="0 0 42 42" fill="none" xmlns="http://www.w3.org/2000/svg">
<rect width="42" height="42" rx="21" fill="url(#paint0_linear_12645_145046)"/>
<path d="M20.5481 25.8544L20.6412 25.2298L20.0132 25.1636C18.0162 24.953 16.2773 24.2242 15.0501 23.2114C13.8225 22.1983 13.1358 20.9305 13.1358 19.6166C13.1358 18.154 13.9503 16.7745 15.3709 15.7381C16.7908 14.7023 18.7804 14.0425 21.0008 14.0425C23.606 14.0425 26.0151 14.959 27.4642 16.4247L27.4713 16.4318L27.4786 16.4388C27.9127 16.8495 28.2593 17.3437 28.4976 17.8918C28.7352 18.4381 28.8603 19.0266 28.8654 19.6223C28.8504 20.8451 28.465 21.8462 27.7084 22.6746C26.9386 23.5176 25.7495 24.219 24.0702 24.7566L23.752 24.8585L23.6688 25.1821C23.4804 25.9144 23.0425 26.558 22.4304 27.0019L22.4304 27.0018L22.4223 27.0079C21.5878 27.6347 20.5694 27.968 19.5258 27.9558L19.5258 27.9557L19.5192 27.9557C19.1735 27.9555 18.8286 27.9227 18.489 27.8578L18.4595 27.8521L18.4296 27.8494C18.4289 27.8494 18.4283 27.8491 18.4278 27.8486C18.4274 27.8481 18.4271 27.8475 18.4271 27.8468C18.427 27.8462 18.4273 27.8455 18.4277 27.845C18.4281 27.8445 18.4287 27.8442 18.4293 27.844L18.4693 27.837L18.508 27.8247C19.5249 27.5007 20.4077 26.7963 20.5481 25.8544Z" stroke="#1B232E" stroke-width="1.21"/>
<defs>
<linearGradient id="paint0_linear_12645_145046" x1="3" y1="9.375" x2="37.5" y2="34.125" gradientUnits="userSpaceOnUse">
<stop stop-color="#E8ECF3"/>
<stop offset="1" stop-color="#D7DEEA" stop-opacity="0.77"/>
</linearGradient>
</defs>
</svg>
