<svg width="42" height="42" viewBox="0 0 42 42" fill="none" xmlns="http://www.w3.org/2000/svg">
<rect width="42" height="42" rx="21" fill="url(#paint0_linear_12645_145076)"/>
<g clip-path="url(#clip0_12645_145076)">
<path d="M15.5515 26.3261L15.5516 26.3262C15.7123 26.4869 15.9314 26.5778 16.1594 26.5778H25.8394C26.0672 26.5778 26.2864 26.4869 26.4471 26.3262L26.4472 26.3261C26.6079 26.1641 26.6975 25.945 26.6975 25.7172V16.2853C26.6975 16.0575 26.6079 15.8384 26.4472 15.6764L26.4471 15.6763C26.2864 15.5156 26.0673 15.4248 25.8394 15.4248H16.1594C15.9315 15.4248 15.7123 15.5156 15.5516 15.6763L15.5516 15.6763L15.5515 15.6765C15.3908 15.8384 15.3012 16.0575 15.3012 16.2853V25.7172C15.3012 25.945 15.3908 26.1641 15.5515 26.3261ZM16.0418 16.1662C16.0725 16.1357 16.1155 16.1179 16.1594 16.1179H25.8394C25.8832 16.1179 25.9262 16.1357 25.9569 16.1662C25.9875 16.1979 26.0045 16.2411 26.0045 16.2854V25.7174C26.0045 25.7617 25.9875 25.8049 25.9569 25.8365C25.9262 25.8671 25.8832 25.8849 25.8394 25.8849H16.1594C16.1155 25.8849 16.0725 25.8671 16.0418 25.8366C16.0112 25.8049 15.9942 25.7617 15.9942 25.7174V16.2854C15.9942 16.2411 16.0112 16.1979 16.0418 16.1662Z" fill="black" stroke="black" stroke-width="0.088"/>
<path d="M20.6567 15.775C20.6567 15.9659 20.8123 16.1215 21.0032 16.1215C21.0952 16.1215 21.1832 16.0849 21.2482 16.02C21.3131 15.955 21.3497 15.867 21.3497 15.775V13.0525C21.3497 12.8603 21.194 12.706 21.0032 12.706C20.8124 12.706 20.6567 12.8603 20.6567 13.0525V15.775Z" fill="black" stroke="black" stroke-width="0.088"/>
<path d="M17.8051 15.777C17.8051 15.9679 17.9607 16.1235 18.1516 16.1235C18.2437 16.1235 18.3317 16.0869 18.3966 16.022L18.3655 15.9909L18.3963 16.0223C18.463 15.9569 18.4981 15.8686 18.4981 15.777V14.1853C18.4981 13.9945 18.3438 13.8388 18.1516 13.8388C17.9607 13.8388 17.8051 13.9944 17.8051 14.1853V15.777Z" fill="black" stroke="black" stroke-width="0.088"/>
<path d="M23.5043 15.777C23.5043 15.9678 23.6586 16.1235 23.8508 16.1235C23.9416 16.1235 24.0308 16.087 24.0958 16.022C24.1608 15.957 24.1973 15.869 24.1973 15.777V14.1853C24.1973 13.9944 24.0418 13.8388 23.8508 13.8388C23.6586 13.8388 23.5043 13.9945 23.5043 14.1853V15.777Z" fill="black" stroke="black" stroke-width="0.088"/>
<path d="M20.1997 13.0606C20.1997 13.3246 20.2991 13.5257 20.4508 13.6605C20.6016 13.7945 20.8015 13.8606 20.9999 13.8606C21.1983 13.8606 21.3982 13.7945 21.549 13.6605C21.7007 13.5257 21.8002 13.3246 21.8002 13.0606C21.8002 12.7967 21.7007 12.5955 21.549 12.4608C21.3982 12.3268 21.1983 12.2607 20.9999 12.2607C20.8015 12.2607 20.6016 12.3268 20.4508 12.4608C20.2991 12.5955 20.1997 12.7967 20.1997 13.0606Z" fill="black" stroke="black" stroke-width="0.088"/>
<path d="M12.7844 21.3521H15.5069C15.6991 21.3521 15.8534 21.1964 15.8534 21.0056C15.8534 20.8148 15.6991 20.6591 15.5069 20.6591H12.7844C12.5935 20.6591 12.4379 20.8147 12.4379 21.0056C12.4379 21.1965 12.5935 21.3521 12.7844 21.3521Z" fill="black" stroke="black" stroke-width="0.088"/>
<path d="M13.9133 24.2037H15.5074C15.6996 24.2037 15.8539 24.048 15.8539 23.8572C15.8539 23.6651 15.6995 23.5107 15.5074 23.5107H13.9133C13.7225 23.5107 13.5668 23.665 13.5668 23.8572C13.5668 24.0481 13.7224 24.2037 13.9133 24.2037Z" fill="black" stroke="black" stroke-width="0.088"/>
<path d="M13.9133 18.5006H15.5074C15.6995 18.5006 15.8539 18.3462 15.8539 18.1541C15.8539 17.9633 15.6996 17.8076 15.5074 17.8076H13.9133C13.7224 17.8076 13.5668 17.9632 13.5668 18.1541C13.5668 18.3463 13.7225 18.5006 13.9133 18.5006Z" fill="black" stroke="black" stroke-width="0.088"/>
<path d="M11.9926 21.0059C11.9926 21.2699 12.0921 21.4711 12.2437 21.6058C12.3946 21.7398 12.5944 21.8059 12.7929 21.8059C12.9913 21.8059 13.1912 21.7398 13.342 21.6058C13.4937 21.4711 13.5931 21.2699 13.5931 21.0059C13.5931 20.742 13.4937 20.5408 13.342 20.4061C13.1912 20.2721 12.9913 20.206 12.7929 20.206C12.5944 20.206 12.3946 20.2721 12.2437 20.4061C12.0921 20.5408 11.9926 20.742 11.9926 21.0059Z" fill="black" stroke="black" stroke-width="0.088"/>
<path d="M20.6567 28.9469C20.6567 29.1378 20.8123 29.2934 21.0032 29.2934C21.0952 29.2934 21.1832 29.2568 21.2482 29.1919C21.3131 29.1269 21.3497 29.0389 21.3497 28.9469V26.2244C21.3497 26.0335 21.1941 25.8779 21.0032 25.8779C20.8123 25.8779 20.6567 26.0335 20.6567 26.2244V28.9469Z" fill="black" stroke="black" stroke-width="0.088"/>
<path d="M23.5043 27.8239C23.5043 28.0147 23.6586 28.1704 23.8508 28.1704C24.0418 28.1704 24.1973 28.0148 24.1973 27.8239V26.2322C24.1973 26.0413 24.0418 25.8857 23.8508 25.8857C23.6586 25.8857 23.5043 26.0414 23.5043 26.2322V27.8239Z" fill="black" stroke="black" stroke-width="0.088"/>
<path d="M17.8051 27.8239C17.8051 28.0148 17.9607 28.1704 18.1516 28.1704C18.3438 28.1704 18.4981 28.0147 18.4981 27.8239V26.2322C18.4981 26.0414 18.3438 25.8857 18.1516 25.8857C17.9607 25.8857 17.8051 26.0413 17.8051 26.2322V27.8239Z" fill="black" stroke="black" stroke-width="0.088"/>
<path d="M20.1997 28.9434C20.1997 29.2074 20.2991 29.4086 20.4508 29.5433C20.6016 29.6773 20.8015 29.7434 20.9999 29.7434C21.1983 29.7434 21.3982 29.6773 21.549 29.5433C21.7007 29.4086 21.8002 29.2074 21.8002 28.9434C21.8002 28.6795 21.7007 28.4783 21.549 28.3436C21.3982 28.2096 21.1983 28.1435 20.9999 28.1435C20.8015 28.1435 20.6016 28.2096 20.4508 28.3436C20.2991 28.4783 20.1997 28.6795 20.1997 28.9434Z" fill="black" stroke="black" stroke-width="0.088"/>
<path d="M26.4876 21.3521H29.2101C29.4023 21.3521 29.5566 21.1964 29.5566 21.0056C29.5566 20.8148 29.4023 20.6591 29.2101 20.6591H26.4876C26.2966 20.6591 26.1411 20.8147 26.1411 21.0056C26.1411 21.1965 26.2966 21.3521 26.4876 21.3521Z" fill="black" stroke="black" stroke-width="0.088"/>
<path d="M26.4993 18.5006H28.0933C28.2841 18.5006 28.4398 18.3463 28.4398 18.1541C28.4398 17.9632 28.2842 17.8076 28.0933 17.8076H26.4993C26.3071 17.8076 26.1528 17.9633 26.1528 18.1541C26.1528 18.3462 26.3072 18.5006 26.4993 18.5006Z" fill="black" stroke="black" stroke-width="0.088"/>
<path d="M26.4993 24.2037H28.0933C28.2842 24.2037 28.4398 24.0481 28.4398 23.8572C28.4398 23.665 28.2841 23.5107 28.0933 23.5107H26.4993C26.3072 23.5107 26.1528 23.6651 26.1528 23.8572C26.1528 24.048 26.3071 24.2037 26.4993 24.2037Z" fill="black" stroke="black" stroke-width="0.088"/>
<path d="M28.4067 21.0059C28.4067 21.2699 28.5061 21.4711 28.6578 21.6058C28.8086 21.7398 29.0085 21.8059 29.2069 21.8059C29.4054 21.8059 29.6052 21.7398 29.7561 21.6058C29.9077 21.4711 30.0072 21.2699 30.0072 21.0059C30.0072 20.742 29.9077 20.5408 29.7561 20.4061C29.6052 20.2721 29.4054 20.206 29.2069 20.206C29.0085 20.206 28.8086 20.2721 28.6578 20.4061C28.5061 20.5408 28.4067 20.742 28.4067 21.0059Z" fill="black" stroke="black" stroke-width="0.088"/>
</g>
<defs>
<linearGradient id="paint0_linear_12645_145076" x1="3" y1="9.375" x2="37.5" y2="34.125" gradientUnits="userSpaceOnUse">
<stop stop-color="#E8ECF3"/>
<stop offset="1" stop-color="#D7DEEA" stop-opacity="0.77"/>
</linearGradient>
<clipPath id="clip0_12645_145076">
<rect width="18" height="18" fill="white" transform="translate(12 12)"/>
</clipPath>
</defs>
</svg>
