<svg width="42" height="42" viewBox="0 0 42 42" fill="none" xmlns="http://www.w3.org/2000/svg">
<g clip-path="url(#clip0_12700_21341)">
<path d="M42 21C42 9.40202 32.598 0 21 0C9.40202 0 0 9.40202 0 21C0 32.598 9.40202 42 21 42C32.598 42 42 32.598 42 21Z" fill="url(#paint0_linear_12700_21341)"/>
<path d="M21.0007 18.0703C20.2236 18.0703 19.4787 18.3787 18.9294 18.9287C18.3793 19.478 18.071 20.2229 18.071 21C18.071 21.7771 18.3793 22.522 18.9294 23.0713C19.4787 23.6214 20.2236 23.9297 21.0007 23.9297C21.7778 23.9297 22.5227 23.6214 23.072 23.0713C23.6221 22.522 23.9304 21.7771 23.9304 21C23.9304 20.2229 23.6221 19.478 23.072 18.9287C22.5227 18.3787 21.7778 18.0703 21.0007 18.0703ZM21.0007 22.7578C20.2895 22.7578 19.6487 22.3293 19.3769 21.6724C19.1045 21.0161 19.2553 20.2595 19.7578 19.757C20.2602 19.2546 21.0168 19.1037 21.6731 19.3762C22.3301 19.6479 22.7585 20.2888 22.7585 21C22.7585 21.9704 21.9712 22.7578 21.0007 22.7578ZM27.7822 22.2502C27.4482 21.9199 27.26 21.4695 27.26 21C27.26 20.5305 27.4482 20.0801 27.7822 19.7497L27.876 19.656C28.3037 19.2305 28.3938 18.5713 28.0942 18.0469L27.1179 16.3594C26.8008 15.8196 26.1526 15.5698 25.5557 15.7581C25.0972 15.8965 24.6028 15.8423 24.1853 15.6079C23.7678 15.3735 23.4646 14.9788 23.3445 14.5159V14.4221C23.1936 13.8113 22.645 13.3821 22.0166 13.3828H20.0479C19.4187 13.3821 18.8701 13.8113 18.7192 14.4221V14.5159C18.6013 14.9934 18.2878 15.4007 17.8557 15.6365C17.4236 15.8723 16.9124 15.917 16.4458 15.7581C15.8489 15.5669 15.1985 15.8167 14.8836 16.3594L13.9072 18.0469C13.6077 18.5713 13.6978 19.2305 14.1255 19.656L14.2193 19.7498C14.5532 20.0801 14.7415 20.5305 14.7415 21C14.7415 21.4695 14.5533 21.9199 14.2193 22.2503L14.1255 22.344C13.6978 22.7695 13.6077 23.4287 13.9072 23.9531L14.8836 25.6406C15.2007 26.1804 15.8489 26.4302 16.4458 26.2419C16.9094 26.0911 17.4141 26.1387 17.8411 26.3745C18.2673 26.6096 18.5772 27.0117 18.6958 27.4841V27.5779C18.8467 28.1887 19.3953 28.6179 20.0244 28.6172H21.9309H21.9302C22.5593 28.6179 23.1079 28.1887 23.2588 27.5779V27.4841C23.3774 27.0117 23.6873 26.6096 24.1135 26.3745C24.5405 26.1387 25.0452 26.0911 25.5088 26.2419C26.1057 26.4331 26.7561 26.1834 27.071 25.6406L28.0474 23.9531C28.3469 23.4287 28.2568 22.7695 27.8291 22.344L27.7822 22.2502ZM26.9538 23.0859L27.0556 23.1797C27.0945 23.2361 27.0945 23.3108 27.0556 23.3672L26.0793 25.0547H26.0786C26.0412 25.1206 25.9629 25.1499 25.8911 25.125C25.1184 24.876 24.2761 24.958 23.5657 25.3513C22.8553 25.7454 22.3396 26.4155 22.1412 27.2029V27.2966C22.1177 27.3816 22.0423 27.4416 21.9537 27.4453H20.0479C19.9593 27.4416 19.8838 27.3816 19.8604 27.2966V27.2029C19.7007 26.5649 19.3309 25.9995 18.8108 25.5967C18.2908 25.1946 17.6507 24.9785 16.993 24.9844C16.6854 24.9844 16.3799 25.0312 16.087 25.125C16.0152 25.147 15.9383 25.1177 15.8995 25.0547L14.9224 23.3437C14.8836 23.2874 14.8836 23.2126 14.9224 23.1562L15.0242 23.0544C15.5823 22.5154 15.9024 21.7756 15.9149 21C15.9134 20.217 15.6021 19.467 15.0477 18.9141L14.9459 18.8203C14.907 18.7639 14.907 18.6892 14.9459 18.6328L15.8995 16.9453C15.9368 16.8794 16.0152 16.8501 16.087 16.875C16.8597 17.124 17.702 17.042 18.4123 16.6487C19.1228 16.2546 19.6384 15.5845 19.8369 14.7971V14.7034C19.8603 14.6184 19.9358 14.5584 20.0244 14.5547H21.9309H21.9302C22.0188 14.5584 22.0942 14.6184 22.1177 14.7034V14.7971C22.3162 15.5845 22.8318 16.2546 23.5422 16.6487C24.2527 17.042 25.095 17.124 25.8676 16.875C25.9394 16.853 26.0163 16.8823 26.0551 16.9453L27.079 18.6563C27.1179 18.7126 27.1179 18.7874 27.079 18.8438L26.9772 18.9456C26.4191 19.4846 26.0991 20.2244 26.0866 21C26.0881 21.783 26.3994 22.533 26.9538 23.0859Z" fill="black"/>
</g>
<defs>
<linearGradient id="paint0_linear_12700_21341" x1="3" y1="9.375" x2="37.5" y2="34.125" gradientUnits="userSpaceOnUse">
<stop stop-color="#E8ECF3"/>
<stop offset="1" stop-color="#D7DEEA" stop-opacity="0.77"/>
</linearGradient>
<clipPath id="clip0_12700_21341">
<rect width="42" height="42" fill="white"/>
</clipPath>
</defs>
</svg>
